# xmcd
#
# Track frame offsets: 
#        150
#        28673
#        52921
#        74723
#        109318
#        158875
#        183687
#        205103
#        235799
#        252841
#        276077
#        297087
#        313135
#        334715
#
# Disc length: 4642 seconds
#
# Revision: 5
# Processed by: cddbd v1.5.2PL0 Copyright (c) Steve Scherf et al.
# Submitted via: ExactAudioCopy v1.0b3
#
DISCID=d212200e
DTITLE=Various Artist - Blues Paradise - Vol..7
DYEAR=2000
DGENRE=Blues
TTITLE0=Black Bone Slip - Dangerzone
TTITLE1=J.J. Cale - Cloud Day
TTITLE2=Koko Taylor - I'd Rather Go Blind
TTITLE3=Kid Jonny Lang and Big Band - Nice and Warm
TTITLE4=Monster Mike Welch - Cold Poison
TTITLE5=Bryan Lee - Let Me Down Easy
TTITLE6=Larry McCRAY - Same Old Blues
TTITLE7=Bernie Madsen - Love That Burns
TTITLE8=Freddie King - Only Getting Second Best
TTITLE9=Mike Griffin and The UBB - I'd Rather Go Blind
TTITLE10=Popa Chubby - Nobody Knows You When
TTITLE11=Roy Roberts - What Should 100?
TTITLE12=Adrian A.B. Burns - More Than I Cold Chew
TTITLE13=Jay Owens - Gonna Send For Me Baby
EXTD=YEAR: 1997 ID3G:   0
EXTT0=
EXTT1=
EXTT2=
EXTT3=
EXTT4=
EXTT5=
EXTT6=
EXTT7=
EXTT8=
EXTT9=
EXTT10=
EXTT11=
EXTT12=
EXTT13=
PLAYORDER=
